# xmcd
#
# Track frame offsets: 
#        150
#        11425
#        32468
#        41666
#        56339
#        68092
#        86043
#        102907
#        125014
#        135762
#        153769
#        167798
#        186024
#        194276
#        217688
#        227321
#        246813
#        266871
#        293079
#        302454
#        317872
#
# Disc length: 4491 seconds
#
# Revision: 0
# Processed by: cddbd v1.5.1PL0 Copyright (c) Steve Scherf et al.
# Submitted via: ExactAudioCopy v0.95a2
#
DISCID=0d118915
DTITLE=Johnny Shines - Live In Europe 1975
DYEAR=2004
DGENRE=Blues
TTITLE0=32-20 Blues
TTITLE1=Did You Ever Love A Woman (That Didn't Love You)
TTITLE2=Instumental
TTITLE3=Stormy Monday
TTITLE4=I Believe I'll Dust My Broom
TTITLE5=I Don't Know
TTITLE6=Rock Me Mama
TTITLE7=Motherless Children
TTITLE8=Got My Mojo Working
TTITLE9=How Long
TTITLE10=Kind Hearted Woman
TTITLE11=Won't Be Your Fool No More
TTITLE12=Roll And Tumble Blues
TTITLE13=Why I Sing The Blues So Sad
TTITLE14=Instumental
TTITLE15=Why Do You Treat Me So Mean¿
TTITLE16=St. Louis Blues
TTITLE17=You Ain't Sugar No More
TTITLE18=Shake Your Money Maker (Instumental)
TTITLE19=Ramblin'
TTITLE20=Stand By Me
EXTD=
EXTT0=
EXTT1=
EXTT2=
EXTT3=
EXTT4=
EXTT5=
EXTT6=
EXTT7=
EXTT8=
EXTT9=
EXTT10=
EXTT11=
EXTT12=
EXTT13=
EXTT14=
EXTT15=
EXTT16=
EXTT17=
EXTT18=
EXTT19=
EXTT20=
PLAYORDER=
